<?xml version="1.0" standalone="no"?><!DOCTYPE svg PUBLIC "-//W3C//DTD SVG 1.1//EN" "http://www.w3.org/Graphics/SVG/1.1/DTD/svg11.dtd"><svg class="icon" width="128px" height="127.50px" viewBox="0 0 1028 1024" version="1.1" xmlns="http://www.w3.org/2000/svg"><path fill="#d81e06" d="M996.2020199999997 869.2363640000002l-899.878788-6.252776074688882e-13c-17.713131000000004-1.0658141036401503e-14-32.064645999999996-13.187879000000024-32.06464599999998-29.60808100000002L64.25858600000004 127.87070699999977c1.0658141036401503e-14-16.420201999999996-14.351514999999978-29.608081-32.06464699999999-29.608081000000013S3.979039320256561e-13 111.45050499999958 1.1368683772161603e-13 127.87070699999994l-2.2737367544323206e-13 741.2363639999999c-2.1316282072803006e-14 32.711111 28.832322999999967 59.34545500000003 64.25858599999995 59.34545400000002l931.943434 6.252776074688882e-13c17.713131000000004 1.0658141036401503e-14 32.064646-13.187878999999976 32.064647000000015-29.60808099999998s-14.351514999999978-29.608081-32.06464699999999-29.608080000000015m0 0z"  /><path fill="#d81e06" d="M160.58181799999988 631.9838379999997l63.741414000000006 3.907985046680551e-14c11.119191999999998 0.3878790000000052 22.109091-4.654544999999986 28.315152000000015-13.963635999999987l68.26666700000006-100.97777799999994 97.48686799999999 202.084849c4.137373999999994 8.662626 12.282827999999993 14.480808000000007 21.462625999999993 16.67878800000001 16.67878799999999 4.26666700000001 34.13333299999999-4.52525299999998 39.305051000000006-19.911111999999967l131.74949500000008-398.0929289999999 96.06464599999981 290.26262600000007c2.9737369999999927 13.575758 15.903029999999983 23.789899000000013 31.418181999999987 23.789899000000016l160.581818 8.526512829121202e-14c2.844444 2.220446049250313e-16 5.430303-0.38787899999999587 8.016162-0.9050499999999944 10.860605999999988 18.230303000000006 31.935353999999975 30.64242400000002 56.24242399999997 30.642424000000027 35.426263 7.105427357601002e-15 64.25858600000001-26.50505099999998 64.25858600000001-59.34545399999996S998.529293 543.0303030000003 963.10303 543.0303030000003c-24.177777999999996-1.9539925233402755e-14-45.252525000000006 12.412120999999967-56.242424000000014 30.642423999999963-2.585859-0.6464650000000013-5.171716999999999-0.9050510000000025-8.016162-0.9050500000000046L762.3111109999999 572.767677l-120.75959599999977-364.60606100000007c-5.171716999999989-15.644444-23.143433999999985-24.436364000000015-40.080807999999976-19.65252500000002-5.947475000000001 1.680807999999999-10.860606000000004 4.783837999999994-14.73939400000001 8.791918999999993-3.103030000000002 3.1030299999999977-5.559596000000004 6.981817999999996-6.981818000000004 11.248484999999993l-137.30909100000014 415.0303029999999L355.6848480000001 443.4747469999998c-1.5515149999999975-3.749495000000002-3.878787999999995-7.111111000000002-6.981817999999992-10.084848000000003-0.1292929999999999-0.1292930000000001-0.38787899999999975-0.2585860000000002-0.5171709999999999-0.3878790000000003l-0.5171719999999996-0.5171720000000004c-9.179797999999993-8.016162000000005-23.014140999999995-10.602020000000003-35.16767699999998-5.559595000000021-6.981818000000002 2.844443999999996-12.282828000000006 7.757575999999991-15.51515100000001 13.57575699999999L207.64444400000002 572.7676769999998 160.581818 572.767677c-17.713131000000004-1.0658141036401503e-14-32.06464600000001 13.317171999999983-32.06464600000002 29.60808099999998-0.12929300000000943 16.290909 14.351514999999978 29.608081 32.064645999999975 29.608080000000015m0 0z"  /></svg>