<?xml version="1.0" standalone="no"?><!DOCTYPE svg PUBLIC "-//W3C//DTD SVG 1.1//EN" "http://www.w3.org/Graphics/SVG/1.1/DTD/svg11.dtd"><svg class="icon" width="128px" height="128.00px" viewBox="0 0 1024 1024" version="1.1" xmlns="http://www.w3.org/2000/svg"><path d="M213.003315 0h543.116022c49.785635 0 90.519337 40.733702 90.519337 90.519337v825.98895c0 49.785635-40.733702 90.519337-90.519337 90.519337H213.003315c-49.785635 0-90.519337-40.733702-90.519337-90.519337V90.519337C122.483978 40.733702 163.21768 0 213.003315 0z" fill="#FCBAC2" /><path d="M228.278453 16.972376h543.116022c49.785635 0 90.519337 40.733702 90.519337 90.519337v825.98895c0 49.785635-40.733702 90.519337-90.519337 90.519337h-543.116022c-49.785635 0-90.519337-40.733702-90.519337-90.519337V107.491713c0-49.785635 40.167956-90.519337 90.519337-90.519337z" fill="#FB7B8A" /><path d="M113.99779 124.464088h52.614365c7.920442 0 14.143646 6.223204 14.143646 14.143647v3.960221c0 7.920442-6.223204 14.143646-14.143646 14.143646H113.99779c-7.920442 0-14.143646-6.223204-14.143646-14.143646v-3.960221C99.854144 131.253039 106.077348 124.464088 113.99779 124.464088z" fill="#FCA9B3" /><path d="M113.99779 189.524862h52.614365c7.920442 0 14.143646 6.223204 14.143646 14.143646v3.960221c0 7.920442-6.223204 14.143646-14.143646 14.143647H113.99779c-7.920442 0-14.143646-6.223204-14.143646-14.143647V203.668508c0-7.920442 6.223204-14.143646 14.143646-14.143646z" fill="#FCBAC2" /><path d="M265.051934 147.093923l658.528176 31.116022-33.944751 715.102762-658.528177-31.116022 33.944752-715.102762z" fill="#FDCFD5" /><path d="M515.320928 348.210917l0.848619-22.612862 226.70568 8.480531-0.848619 22.612862zM512.203669 413.260376l0.848618-22.612862 150.946652 5.657458-0.848619 22.612862zM504.571757 628.260773l0.848619-22.618519 226.705679 8.486188-0.848619 22.607204zM501.437525 693.87032l0.848619-22.618519 150.946652 5.657459-0.848619 22.612862z" fill="#FB7B8A" /><path d="M405.658499 356.341139a45.260574 45.260574 0 1 0 4.084214-90.428962 45.260574 45.260574 0 1 0-4.084214 90.428962Z" fill="#FB7B8A" /><path d="M326.718232 426.572376v-3.960221c1.697238-37.339227 33.379006-66.192265 70.718232-64.495028l16.972376 0.565746c37.339227 1.697238 66.192265 33.379006 64.495027 70.718232v3.960221" fill="#FB7B8A" /><path d="M394.929032 631.889526a45.260574 45.260574 0 1 0 4.084214-90.428963 45.260574 45.260574 0 1 0-4.084214 90.428963Z" fill="#FB7B8A" /><path d="M315.403315 702.090608v-3.960221c1.697238-37.339227 33.379006-66.192265 70.718232-64.495028l16.972376 0.565746c37.339227 1.697238 66.192265 33.379006 64.495027 70.718232v3.960221" fill="#FB7B8A" /></svg>