<?xml version="1.0" standalone="no"?><!DOCTYPE svg PUBLIC "-//W3C//DTD SVG 1.1//EN" "http://www.w3.org/Graphics/SVG/1.1/DTD/svg11.dtd"><svg class="icon" width="128px" height="128.00px" viewBox="0 0 1024 1024" version="1.1" xmlns="http://www.w3.org/2000/svg"><path d="M917.1 134.1v457.5H523.2v81h436.1v-15.5H992v-523h-74.9zM387 755.1H30.6v76.6h394.3v-9.1h34.7V491H387v264.1z" fill="#F6D39A" /><path d="M627.7 666.5h24.9v88.7h-24.9v-88.7z" fill="#FFFFFF" /><path d="M952.4 106.7H315.2c-36 0.3-65.1 29.9-64.9 65.8v296.9H71.8c-18 0.2-34.9 7.5-47.5 20.4-12.6 12.9-19.4 30-19.2 47.8v238.9c-0.2 18 6.6 35.1 19.2 48 12.6 12.9 29.5 20.1 47.7 20.3h168.3v51.3H138.2c-0.8 0-1.4 0.6-1.5 1.4v23.7c0 0.8 0.7 1.5 1.5 1.5h230.4c0.8-0.1 1.4-0.7 1.3-1.5v-23.5-0.1c0-0.8-0.6-1.4-1.4-1.4H266.4v-51.3h155.5c37.2-0.5 67.2-31.2 66.7-68.2v-95h123.9V752h-122c-1 0-1.9 0.6-1.9 1.4V777c0 0.8 0.9 1.5 1.9 1.5h294.6c1-0.1 1.7-0.7 1.7-1.5v-23.5-0.1c0-0.8-0.7-1.4-1.7-1.4h-128v-70.4h295.5c36.1-0.3 65.2-29.8 65-65.8V172.5c0.2-36.1-29-65.6-65.2-65.8z m-494 670.1c0.2 20.6-16.3 37.6-36.7 37.8H72.2c-10-0.1-19.3-4.1-26.3-11.2s-10.7-16.5-10.6-26.8V537.4c-0.1-10 3.6-19.4 10.6-26.5 7-7.1 16.3-11.1 26-11.3h178.4v116.1c-0.3 36 28.8 65.6 65 65.9h143.1v95.2z m0-125.4h-143c-19.4-0.2-35-16.1-34.9-35.5V499.6h140.9c20.6 0.3 37.1 17.2 36.9 38v113.8z m528.9-35.5c0.1 9.4-3.5 18.3-10.1 25-6.6 6.7-15.4 10.4-24.8 10.5H488.7V537.8c0.4-37.2-29.5-67.9-66.9-68.4H280.6v-297c-0.1-19.4 15.5-35.2 34.8-35.4h636.9c19.4 0.1 35.1 16 35 35.6v443.3z" fill="#EA9B1A" /></svg>