<?xml version="1.0" standalone="no"?><!DOCTYPE svg PUBLIC "-//W3C//DTD SVG 1.1//EN" "http://www.w3.org/Graphics/SVG/1.1/DTD/svg11.dtd"><svg t="1546841473845" class="icon" style="" viewBox="0 0 1024 1024" version="1.1" xmlns="http://www.w3.org/2000/svg" p-id="6623" xmlns:xlink="http://www.w3.org/1999/xlink" width="300" height="300"><defs><style type="text/css"></style></defs><path d="M224.6912 606.8224c25.5232 25.53344 60.8256 41.35936 99.85024 41.35936a140.74368 140.74368 0 0 0 108.672-51.06688l138.46528 87.2448c-8.41216 18.00192-12.97408 37.98016-12.97408 59.1616 0 38.92224 15.77984 74.20928 41.41056 99.79392a140.544 140.544 0 0 0 99.75296 41.36448c39.02464 0 74.31168-15.83104 99.84512-41.36448 25.53856-25.58464 41.41568-60.8768 41.41568-99.79392 0-38.92736-15.87712-74.32192-41.41568-99.85024-25.53344-25.53344-60.82048-41.36448-99.84512-41.36448a140.52864 140.52864 0 0 0-99.75296 41.36448 116.4288 116.4288 0 0 0-8.91904 9.6512l-138.46528-87.18848a140.73344 140.73344 0 0 0 12.97408-59.1616c0-21.12512-4.66944-41.10336-12.97408-59.1616l138.46528-87.18848a117.82144 117.82144 0 0 0 8.91904 9.70752 140.49792 140.49792 0 0 0 99.75296 41.30816 140.89728 140.89728 0 0 0 99.84512-41.30816c25.53856-25.58464 41.31328-60.8768 41.31328-99.85024a140.65152 140.65152 0 0 0-41.31328-99.79904 140.92288 140.92288 0 0 0-99.84512-41.36448 140.50816 140.50816 0 0 0-99.75296 41.36448 140.35456 140.35456 0 0 0-41.41056 99.79904c0 21.1712 4.56704 41.15456 12.97408 59.1616L433.20832 416.87552a152.64768 152.64768 0 0 0-8.82688-9.70752c-25.52832-25.63584-60.82048-41.35936-99.84512-41.35936s-74.32704 15.83104-99.85024 41.35936a140.8256 140.8256 0 0 0-41.4208 99.80416c0.00512 38.97344 15.89248 74.26048 41.42592 99.85024z m401.26976 62.73536c18.8928-18.93888 45.05088-30.5664 73.9072-30.5664s55.00928 11.62752 73.90208 30.5664c18.88256 18.94912 30.61248 45.05088 30.61248 73.9584 0 28.8512-11.72992 54.90688-30.61248 73.90208-18.88768 18.88768-45.04576 30.5152-73.90208 30.5152s-55.00928-11.62752-73.9072-30.5152c-18.8928-18.9952-30.61248-45.05088-30.61248-73.90208-0.00512-28.90752 11.71456-55.00416 30.61248-73.9584z m0-472.9344c18.8928-18.93888 45.05088-30.6176 73.9072-30.6176s55.00928 11.67872 73.90208 30.6176a104.1664 104.1664 0 0 1 30.61248 73.85088c0 28.8512-11.72992 55.00928-30.61248 73.95328-18.88768 18.88768-45.04576 30.5152-73.90208 30.5152s-55.00928-11.62752-73.9072-30.5152a104.46336 104.46336 0 0 1-30.61248-73.95328 104.06912 104.06912 0 0 1 30.61248-73.85088z m-375.32672 236.4416c18.88768-18.88768 45.05088-30.6176 73.9072-30.6176s55.00928 11.72992 73.9072 30.6176a104.28928 104.28928 0 0 1 30.51008 73.90208 104.11008 104.11008 0 0 1-30.51008 73.90208c-18.8928 18.8928-45.05088 30.6176-73.9072 30.6176s-55.0144-11.7248-73.9072-30.6176a103.74656 103.74656 0 0 1-30.6176-73.90208 103.92064 103.92064 0 0 1 30.6176-73.90208z" p-id="6624" fill="#d81e06"></path></svg>