<?xml version="1.0" standalone="no"?><!DOCTYPE svg PUBLIC "-//W3C//DTD SVG 1.1//EN" "http://www.w3.org/Graphics/SVG/1.1/DTD/svg11.dtd"><svg t="1546841619662" class="icon" style="" viewBox="0 0 1024 1024" version="1.1" xmlns="http://www.w3.org/2000/svg" p-id="12564" xmlns:xlink="http://www.w3.org/1999/xlink" width="300" height="300"><defs><style type="text/css"></style></defs><path d="M278.119787 512.429789c-32.559557 0-33.354666 0.795109-33.354666 23.031553l0 114.360608c0 73.858148 4.765537 81.007989 40.503483 85.770456l25.412786 3.176342c6.352685 4.76656 6.352685 23.033599 0 27.796066-45.26595-1.586125-84.974323-2.38328-120.713292-2.38328-38.121226 0-77.830623 0.797156-118.334105 2.38328-6.352685-4.762467-6.352685-23.029506 0-27.796066l19.060101-2.379187c36.532031-4.767584 40.503483-12.710486 40.503483-86.568634L131.197576 354.390379c0-73.859171-3.971451-81.800028-40.503483-86.565565l-19.060101-2.38328c-6.352685-4.764514-6.352685-23.029506 0-27.79709 38.915311 1.588171 80.211856 2.381234 118.334105 2.381234 35.738969 0 75.447343-0.793062 110.388133-2.381234 6.352685 4.767584 6.352685 23.031553 0 27.79709l-16.676821 2.38328c-34.149774 4.765537-38.915311 12.706393-38.915311 86.565565l0 92.123141c0 23.031553 0.795109 23.823592 33.354666 23.823592L443.31006 470.337111c33.354666 0 33.354666-0.792039 33.354666-23.823592l0-92.123141c0-73.859171-3.971451-80.211856-40.503483-85.771479l-21.443381-3.176342c-6.353708-4.764514-6.353708-23.029506 0-27.79709 43.681872 1.588171 82.595136 2.381234 120.716362 2.381234 38.915311 0 75.447343-0.793062 111.977327-2.381234 6.354731 4.767584 6.354731 23.031553 0 27.79709l-15.881712 2.38328c-36.534078 5.558599-41.298592 12.706393-41.298592 86.565565l0 295.431569c0 73.858148 4.764514 79.416747 41.298592 85.770456l19.057031 3.176342c6.353708 4.76656 6.353708 23.033599 0.002047 27.796066-39.708374-1.586125-78.622662-2.38328-115.154693-2.38328-39.71042 0-78.623685 0.797156-116.744911 2.38328-6.353708-4.762467-6.353708-23.029506 0-27.796066l17.47193-2.379187c36.531008-4.767584 40.503483-12.710486 40.503483-86.568634L476.664725 535.461341c0-22.23542 0-23.031553-33.354666-23.031553L278.119787 512.429789z" p-id="12565" fill="#d81e06"></path><path d="M936.049391 339.704912c4.749164 0 6.53074 2.968611 6.53074 7.123234-5.342682 22.560832-17.810644 46.902216-32.653701 61.149708l-134.172839 14.843056c-8.311293 1.188058-11.279904 7.123234-13.656021 17.217127l-3.562129 13.654998c-3.560082 13.653975 4.15667 16.029068 16.030092 17.216103 31.465642 3.563152 86.679152 11.874445 121.113405 29.090549 33.245172 16.624632 62.929238 49.869804 62.929238 99.147114 0 61.744249-36.214806 101.521185-85.489046 128.235616-49.278333 26.717502-111.021559 37.996382-160.889317 39.183418-8.906857-4.15667-11.281951-22.560832-3.562129-27.904537 42.7435-1.777483 90.833775-10.091846 118.736265-26.714432 35.026748-20.779256 55.213509-48.087205 55.213509-80.148411 0-84.896552-89.054245-93.800339-148.423401-98.55155-18.996656-1.188058-21.372773-6.529717-17.809621-20.186761l35.623335-136.547933c4.154623-15.434527 7.714705-15.434527 26.714432-17.809621L936.049391 339.704912z" p-id="12566" fill="#d81e06"></path></svg>