<?xml version="1.0" standalone="no"?><!DOCTYPE svg PUBLIC "-//W3C//DTD SVG 1.1//EN" "http://www.w3.org/Graphics/SVG/1.1/DTD/svg11.dtd"><svg t="1546847541794" class="icon" style="" viewBox="0 0 1281 1024" version="1.1" xmlns="http://www.w3.org/2000/svg" p-id="6010" xmlns:xlink="http://www.w3.org/1999/xlink" width="375.29296875" height="300"><defs><style type="text/css"></style></defs><path d="M0 364.096602c1.0239-2.0478 2.559749-4.351574 2.559749-6.399374 0.255975-10.750948 7.679248-17.662271 12.542772-25.853469 4.607549-7.679248 12.542772-10.750948 20.989945-12.286797 2.0478-0.51195 4.863524 0 6.143399-1.279875 12.286797-10.238998 24.829569-5.119499 37.372341-0.51195 1.53585 0.51195 3.839624 0.255975 4.863524-0.767925 6.399374-5.631449 13.310697-8.191198 21.75787-6.655348 0.767925 0.255975 1.791825 0 2.559749-0.255975 14.590572-6.655348 30.205043-7.167298 45.819514-7.935223 4.607549-0.255975 7.423273-1.53585 8.191198-6.655348 1.279875-8.703148 8.191198-13.054722 13.566672-18.686171 1.791825-2.0478 3.071699-5.375474 3.327674-8.191198 0.767925-6.143399 1.0239-12.286797 1.0239-18.430196 0-2.303774-0.767925-4.607549-1.53585-6.655348-7.167298-15.870446 1.791825-29.693093 19.198121-29.949068 10.750948-0.255975 21.501895-1.53585 32.252843-2.815724 1.53585-0.255975 3.583649-2.303774 4.607549-3.839624 4.351574-7.679248 7.679248-15.870446 12.542772-23.037745 3.839624-5.887424 8.447173-11.262897 13.822647-15.614471 6.655348-5.631449 14.590572-5.119499 22.013845-0.767925 6.399374 3.583649 12.798747 7.167298 20.477995 11.518872 0.767925-3.583649 1.279875-6.143399 1.53585-8.447173 1.791825-15.358496 11.262897-25.085544 26.365419-27.901269 2.0478-0.255975 4.607549-2.303774 5.375474-4.095599 6.143399-12.286797 16.894346-16.894346 29.693093-12.542772 0.51195 0.255975 1.279875 0.51195 1.791825 0.767925 16.126421 1.53585 22.525795 11.006922 23.549695 26.621394 0.255975 3.839624 5.631449 7.935223 9.471073 10.494973 6.399374 4.351574 14.334597 6.655348 20.477995 11.518872 3.839624 3.071699 6.143399 8.703148 7.679248 13.566672 2.815724 9.983023 4.095599 20.477995 6.655348 30.461018 2.559749 10.750948 0 20.22202-5.119499 29.437118-1.279875 2.303774-2.303774 4.351574-4.095599 7.679248 3.583649 0.255975 6.399374 1.0239 8.959123 0.767925 17.406296-1.53585 32.252843 3.583649 44.53964 16.382396 6.143399 6.399374 12.030822 12.798747 22.013845 14.334597 6.143399 1.0239 10.494973 6.655348 10.494973 13.054722 0 9.215098 5.631449 15.870446 8.703148 23.549695 3.071699 7.423273 8.447173 9.727048 16.126421 10.238998 6.655348 0.51195 12.798747 4.863524 19.454096 5.887424 7.935223 1.279875 16.126421 0.767925 24.061644 1.0239 13.566672 0.51195 27.133344 0.767925 40.700016 2.0478 4.863524 0.51195 10.750948 2.0478 14.078622 5.375474 8.447173 8.191198 19.71007 10.494973 29.181143 16.382396 2.815724 1.791825 7.423273 1.791825 10.494973 1.0239 6.655348-1.791825 13.310697-4.607549 20.22202-6.911323 1.0239 3.071699 2.0478 5.887424 3.071699 9.215098 1.791825-0.767925 3.327674-1.0239 4.607549-2.0478 20.989945-15.358496 45.05159-19.966045 70.393109-17.918246 9.471073 0.767925 15.870446-6.399374 24.573594-7.935223 1.791825-0.255975 2.815724-4.607549 4.351574-6.655348 3.583649-4.607549 9.215098-8.447173 11.006922-13.822647 1.53585-5.119499-1.791825-11.518872-0.767925-17.150321 1.279875-7.679248 3.327674-15.614471 6.911323-22.26982 6.399374-11.518872 16.638371-14.590572 29.693093-10.494973 4.863524 1.53585 9.727048 3.071699 14.590572 4.863524 4.351574 1.53585 7.167298 0.767925 8.703148-4.095599 3.839624-11.006922 11.518872-16.638371 23.29372-16.126421 6.399374 0.255975 9.215098-3.071699 11.006922-8.447173 2.303774-7.679248 4.863524-15.102522 12.542772-19.198121 5.375474-3.071699 10.750948-6.655348 16.126421-9.983023 0.767925-0.51195 1.279875-1.0239 2.0478-2.0478-7.679248-2.0478-14.078622-4.863524-20.989945 1.279875-2.815724 2.303774-8.703148 2.559749-12.542772 1.791825-16.126421-3.327674-24.829569-22.525795-18.174221-37.884291 3.071699-7.167298 4.095599-15.358496 6.655348-22.78177 2.815724-8.191198 5.631449-16.638371 9.471073-24.317619 5.375474-10.750948 12.030822-13.054722 23.80567-9.983023 5.119499 1.279875 11.006922 3.327674 15.358496-1.791825 1.53585-1.791825 2.815724-4.095599 2.815724-6.399374 0-15.614471 4.095599-30.205043 9.727048-44.53964 0.767925-1.791825 0.255975-4.863524-1.0239-6.143399-6.143399-7.167298-7.423273-16.894346-3.839624-25.597494 7.167298-17.662271 19.454096-27.901269 38.652216-29.949068 4.607549-0.51195 9.471073-2.559749 13.566672-4.863524 9.983023-5.119499 19.71007-6.399374 29.693093-0.767925 2.303774 1.279875 5.631449 1.279875 8.447173 1.53585 7.167298 1.0239 14.334597 1.279875 21.501895 2.815724 8.447173 2.0478 12.542772 8.703148 17.918246 15.358496 8.703148 10.750948 13.054722 24.573594 24.573594 33.788692 4.863524 3.839624 7.423273 10.750948 11.006922 16.382396 3.839624 6.143399 7.679248 12.286797 12.030822 17.918246 1.0239 1.53585 4.095599 2.303774 6.143399 2.0478 11.774847-0.51195 23.037745 0.51195 33.532717 6.399374 1.53585 0.767925 4.095599 0.51195 6.143399 0 11.518872-2.0478 18.942146 2.815724 22.525795 13.566672 1.53585 4.863524 4.095599 9.471073 6.399374 13.822647 1.791825 3.327674 6.655348 1.791825 9.727048-2.559749 4.607549-6.143399 8.959123-12.542772 14.334597-17.918246 4.095599-3.839624 9.727048-5.887424 14.590572-8.959123 3.071699-2.0478 6.399374-4.351574 9.215098-6.655348 8.191198-7.423273 18.942146-7.679248 25.853469-0.51195 5.631449 5.887424 4.863524 12.798747 3.327674 19.71007-1.0239 4.863524-1.279875 9.727048-1.53585 14.846547-0.255975 2.0478 0.51195 4.607549-0.255975 6.399374-4.095599 8.959123-0.255975 17.150321 1.279875 25.853469 2.0478 11.006922 1.279875 22.525795 1.0239 33.788692-0.255975 6.655348-1.53585 13.566672-3.327674 19.966045-3.583649 12.798747-10.238998 17.662271-23.549695 18.686171-8.447173 0.51195-8.191198 0.767925-5.631449 8.959123 3.327674 10.494973 6.143399 21.24592 8.191198 31.996868 1.53585 8.447173 0 16.894346-4.607549 24.573594-1.0239 2.0478-2.0478 4.095599-2.815724 6.399374-2.303774 6.655348-6.655348 11.518872-13.822647 11.774847-8.959123 0-12.798747 6.399374-17.662271 11.774847-4.863524 5.375474-8.191198 11.262897-9.983023 18.686171-2.815724 11.518872-16.382396 18.686171-30.972968 16.894346-5.887424-0.767925-8.703148 0.767925-11.262897 6.143399-2.303774 5.119499-6.143399 9.727048-10.494973 13.566672-10.238998 9.215098-17.150321 20.477995-22.525795 33.020767-1.279875 2.815724-2.303774 4.607549-6.655348 5.375474-13.310697 2.559749-24.061644 10.238998-32.764792 20.73397-6.143399 7.167298-12.030822 14.590572-18.686171 22.525795 2.559749 0.51195 6.143399 1.53585 9.727048 1.53585 5.631449 0.255975 11.518872-1.0239 17.150321-0.255975 11.774847 1.791825 17.918246 12.286797 15.358496 23.549695-2.0478 8.447173-3.071699 17.406296-10.750948 23.037745-1.791825 1.279875-4.095599 2.559749-6.143399 2.559749-10.750948-0.51195-16.894346 4.863524-22.013845 13.822647-4.863524 8.191198-11.774847 15.358496-17.918246 22.78177-1.53585 2.0478-3.327674 3.839624-5.375474 6.399374 2.303774 1.279875 4.095599 2.559749 5.887424 3.327674 10.750948 4.095599 16.382396 12.542772 20.73397 22.78177 4.607549 10.494973 10.238998 20.477995 16.638371 29.949068 2.815724 4.351574 8.703148 6.655348 12.542772 10.494973 4.607549 4.607549 8.447173 9.983023 12.286797 15.102522 2.303774 2.815724 4.095599 6.143399 6.399374 9.727048 0 5.375474 0.51195 12.286797-0.255975 19.198121-0.51195 5.119499-2.559749 9.983023-4.095599 15.358496 12.286797 12.798747 12.798747 28.157243 8.703148 44.795615-1.53585 6.143399-1.53585 12.542772-2.303774 18.686171-1.279875 9.471073-5.631449 17.150321-13.822647 21.75787-4.607549 2.559749-6.655348 5.119499-5.887424 10.494973 1.279875 8.447173-2.559749 14.590572-8.191198 21.24592-4.863524 5.887424-7.423273 13.566672-9.471073 20.989945-1.53585 5.631449-0.51195 11.774847-0.255975 17.662271 0 6.655348-2.815724 11.774847-7.935223 15.870446-5.375474 4.607549-10.494973 9.727048-15.614471 14.846547-3.839624 3.839624-7.423273 8.191198-10.494973 12.542772-2.815724 3.839624-5.887424 7.935223-7.679248 12.286797-3.327674 8.191198-8.447173 13.822647-16.894346 17.150321-3.327674 1.279875-6.399374 4.351574-8.447173 7.423273-7.679248 10.750948-17.406296 17.150321-29.949068 21.75787-9.727048 3.583649-20.22202 4.607549-29.693093 10.494973-6.911323 4.351574-16.638371 4.351574-25.341519 5.375474-4.351574 0.51195-6.399374 2.0478-8.959123 5.375474-3.071699 4.351574-7.423273 8.191198-12.286797 10.494973-8.959123 4.351574-18.430196 7.679248-27.901269 10.494973-7.167298 2.303774-14.334597 3.583649-21.75787 4.863524-3.839624 0.767925-4.351574 2.303774-3.839624 5.631449 2.815724 19.454096-17.406296 35.836492-36.348442 29.181143-7.679248-2.815724-12.030822-8.703148-12.542772-16.894346-0.255975-2.815724-1.0239-5.887424-2.0478-8.447173-0.51195-1.0239-2.559749-1.53585-4.095599-2.0478-1.0239-0.51195-2.815724-0.255975-3.071699-0.767925-4.351574-8.703148-11.006922-8.703148-18.942146-5.119499-1.0239 0.51195-2.559749 0.51195-3.839624 0.255975-16.894346-3.583649-34.300642-6.143399-47.099389-19.198121-3.327674-3.583649-5.887424-8.447173-7.423273-13.310697-2.815724-8.703148-2.303774-8.959123-12.030822-10.238998-0.51195 2.0478-0.767925 3.839624-1.53585 6.655348-3.071699-0.51195-5.887424-1.279875-8.703148-1.0239-2.303774 0-4.351574 1.279875-6.655348 2.0478-1.0239 0.51195-2.303774 2.0478-3.071699 1.791825-6.143399-2.303774-10.494973 2.0478-15.358496 4.351574-8.959123 4.607549-17.662271 0-26.109444-1.279875-7.423273-1.279875-14.590572-2.303774-21.75787 1.279875-1.279875 0.767925-3.071699 2.0478-3.071699 3.327674-0.255975 5.375474-0.51195 11.006922 0.255975 16.382396 1.53585 14.590572-10.750948 24.573594-24.573594 19.71007-7.423273-2.559749-15.358496-4.095599-19.966045-11.518872-0.51195-1.0239-3.071699-1.279875-4.607549-1.0239-11.006922 0.767925-19.454096-3.071699-25.597494-12.542772-1.279875-2.0478-4.095599-3.583649-6.655348-4.351574-13.566672-4.095599-19.71007-14.590572-15.102522-28.157243 1.279875-3.583649 0.255975-5.375474-1.791825-8.447173-3.583649-4.863524-6.143399-10.494973-8.191198-16.382396-1.53585-4.351574-2.815724-5.119499-7.167298-3.583649-12.286797 4.607549-24.829569 0.255975-26.621394-10.494973-1.53585-10.750948-1.791825-22.525795 1.0239-32.764792 3.327674-12.286797 12.542772-22.26982 22.78177-29.949068 4.863524-3.839624 7.935223-8.191198 8.703148-13.310697 1.279875-9.471073 4.095599-20.22202-6.399374-27.133344-1.53585-1.0239-4.351574-1.791825-5.631449-1.0239-9.983023 5.375474-18.942146 2.815724-27.645294-3.071699-3.071699-2.0478-5.887424-4.351574-8.959123-6.143399-5.631449-3.071699-12.286797-2.0478-16.894346 2.815724-1.791825 1.791825-3.583649 4.351574-5.631449 5.119499-11.006922 3.839624-19.966045 11.518872-29.949068 16.894346-14.846547 7.935223-31.740893 8.191198-48.123289 6.143399-10.494973-1.279875-15.870446-9.727048-17.918246-21.501895-1.53585-9.215098-4.863524-17.662271-16.126421-19.966045-4.351574-0.767925-8.191198-3.583649-12.030822-5.887424-5.375474-3.327674-6.399374-3.071699-8.447173 3.071699-3.839624 12.286797-15.102522 18.430196-27.645294 15.614471-7.679248-1.791825-12.542772-6.143399-14.590572-13.822647-0.767925-3.583649-2.303774-5.119499-6.143399-5.119499-10.238998 0-20.22202 0-29.949068-4.351574-5.375474-2.559749-12.542772-1.0239-18.686171-1.279875-6.911323-0.51195-11.774847-4.351574-15.358496-10.238998-1.53585-2.559749-4.607549-4.607549-6.911323-6.655348-2.0478-1.53585-4.863524-2.559749-5.887424-4.607549-3.327674-6.655348-9.471073-9.215098-14.846547-13.310697-8.959123-6.911323-14.078622-18.174221-24.317619-24.061644-0.255975-0.255975-0.51195-0.767925-0.51195-1.0239-2.559749-13.054722-14.078622-18.686171-22.26982-27.133344-1.0239-1.0239-3.839624-1.53585-5.375474-1.0239-12.030822 3.327674-20.989945 0.51195-27.645294-10.238998-6.911323-11.262897-15.358496-20.73397-26.877369-27.901269-14.334597-8.959123-20.477995-21.75787-16.894346-38.652216 1.0239-4.095599 0.255975-8.959123-0.51195-13.310697-2.815724-13.566672 0-20.989945 11.774847-28.157243 3.583649-2.303774 3.839624-4.351574 3.583649-8.191198-0.51195-7.423273 0.255975-15.102522 0.51195-22.525795 0-1.791825-0.767925-3.583649-1.279875-5.375474-1.53585-5.631449-2.815724-11.518872-4.863524-16.894346-1.0239-2.559749-2.815724-4.863524-4.607549-7.423273-0.255975-0.255975-0.767925-0.255975-1.0239-0.51195-7.935223-7.679248-17.150321-13.566672-25.597494-20.477995-6.143399-5.119499-7.935223-12.798747-6.143399-20.989945 1.53585-7.679248 0-11.774847-7.423273-14.846547-18.174221-7.679248-17.918246-29.693093-4.095599-37.884291 3.839624-2.303774 4.351574-11.262897 1.0239-12.798747-9.727048-4.607549-14.334597-12.798747-17.662271-22.26982C0 368.448176 0 366.144402 0 364.096602zM677.053719 413.755741c-0.767925-2.303774-1.279875-3.583649-1.53585-5.119499-0.767925-5.119499-2.815724-7.935223-8.447173-7.935223-3.839624 0-7.679248-2.0478-11.518872-3.327674-7.423273-2.815724-14.590572-5.375474-21.75787-8.703148-4.607549-2.0478-8.191198-5.631449-12.542772-8.447173-2.559749-1.791825-5.375474-4.351574-8.191198-4.607549-9.983023-0.767925-19.966045-0.51195-29.949068-0.767925-9.727048-0.255975-19.71007 0.767925-29.437118-1.0239-13.054722-2.559749-25.341519-7.423273-39.164166-7.167298-7.935223 0.255975-14.846547-5.119499-16.894346-13.566672-3.071699-12.286797-9.471073-22.525795-15.102522-33.276742-0.767925-1.53585-2.0478-3.327674-3.327674-4.351574-6.911323-6.143399-14.078622-11.518872-20.73397-18.174221-5.887424-5.887424-12.030822-8.447173-19.966045-7.423273-10.238998 1.53585-19.454096-1.53585-28.413218-5.375474-13.310697-5.631449-19.71007-16.382396-17.150321-30.205043 1.0239-5.375474 4.607549-10.238998 6.911323-15.614471 1.791825-4.351574 5.119499-8.959123 4.863524-13.310697-0.51195-7.423273-2.815724-14.590572-5.375474-21.75787-1.0239-3.071699-4.607549-6.655348-7.423273-7.423273-8.703148-2.303774-15.358496-6.911323-20.477995-14.334597-3.071699-4.351574-6.655348-8.703148-9.471073-12.286797-6.143399 2.0478-11.518872 4.863524-17.150321 5.119499-6.655348 0.51195-7.935223 2.815724-7.167298 8.959123 2.0478 16.382396-7.935223 27.133344-24.573594 27.645294-11.518872 0.255975-22.26982-2.0478-32.508817-7.935223-1.53585-1.0239-5.887424-0.767925-6.143399 0-4.095599 9.983023-12.030822 17.918246-13.310697 29.437118-1.791825 15.358496-16.126421 21.75787-29.437118 14.078622-1.791825-1.0239-3.327674-2.0478-4.863524-2.815724-7.423273-3.839624-13.310697-0.767925-13.566672 7.423273-0.255975 7.935223 0 15.870446-0.255975 23.549695-0.255975 9.471073-1.0239 19.198121-10.750948 24.573594-5.631449 3.071699-8.959123 6.911323-9.727048 13.822647-1.53585 11.518872-7.679248 17.406296-19.198121 19.198121-5.631449 1.0239-11.518872 1.279875-17.150321 1.53585-18.430196 1.0239-35.836492 3.839624-51.962913 14.846547-10.750948 7.423273-24.573594 8.447173-36.860391 2.303774-5.887424-3.071699-10.750948-4.095599-15.870446-1.279875-3.839624 2.303774-6.911323 6.143399-11.006922 9.983023 7.679248 5.375474 12.286797 12.286797 12.286797 21.24592 0 13.054722-0.767925 25.853469-0.767925 38.908191 0 2.0478 0.51195 4.607549 1.791825 5.631449 8.703148 7.423273 9.727048 16.894346 8.447173 27.389319-0.255975 1.791825 0.51195 4.607549 1.791825 5.375474 7.679248 4.351574 12.542772 12.542772 22.26982 15.102522 10.494973 3.071699 12.030822 13.566672 12.030822 23.29372 0 6.143399 1.53585 10.494973 6.143399 15.102522 10.494973 10.238998 10.238998 20.989945 1.279875 32.508817-1.53585 1.791825-1.791825 5.119499-1.53585 7.679248 0.767925 6.399374 2.303774 12.542772 3.327674 18.942146 1.791825 10.750948-2.815724 20.22202-12.542772 25.341519-8.959123 4.607549-8.959123 12.798747-1.0239 19.198121 8.959123 7.167298 17.150321 15.358496 25.085544 23.29372 2.559749 2.559749 4.607549 3.327674 8.191198 2.815724 10.494973-2.0478 20.989945 0 26.877369 9.215098 5.375474 8.191198 12.030822 14.590572 18.942146 21.24592 2.303774 2.303774 3.839624 5.631449 6.143399 8.191198 1.279875 1.791825 3.071699 3.583649 5.119499 4.095599 9.215098 2.303774 14.334597 8.191198 15.870446 17.406296 0.767925 3.839624 2.0478 6.143399 6.399374 6.399374 7.167298 0.51195 12.286797 4.351574 15.358496 11.006922 0.51195 1.279875 1.53585 2.815724 2.559749 3.327674 7.423273 4.095599 13.310697 11.518872 22.78177 11.518872 2.0478 0 4.351574 0.767925 6.143399 2.0478 8.191198 6.143399 17.150321 4.607549 26.365419 4.095599 6.143399-0.255975 12.798747-1.0239 18.174221 1.0239 5.375474 2.0478 9.215098 1.53585 14.334597-0.51195 12.030822-5.119499 24.061644-5.631449 34.300642 4.863524 2.0478 2.0478 5.887424 2.0478 8.703148 3.327674 6.143399 2.303774 14.078622 3.071699 17.662271 7.167298 6.911323 7.935223 11.262897 17.918246 16.638371 27.133344 0.51195 0.767925 0.51195 2.0478 1.0239 3.071699 0.51195 0.767925 1.53585 1.791825 2.303774 1.791825 6.399374-1.279875 13.310697-0.255975 18.942146-5.887424 5.119499-4.863524 12.030822-7.679248 18.174221-11.262897 2.0478-1.0239 4.607549-1.53585 6.143399-3.071699 13.566672-13.054722 34.044667-17.150321 50.683038-8.959123 6.655348 3.327674 10.494973 3.327674 16.638371-1.791825 13.310697-11.262897 32.252843-3.327674 39.164166 14.846547 1.279875 3.583649 4.607549 6.655348 6.911323 9.983023 2.303774 3.583649 6.143399 6.911323 6.143399 10.750948 0.767925 14.846547 0.51195 29.693093 0 44.795615 0 4.095599 0 9.471073-2.559749 12.030822-6.399374 6.655348-10.238998 15.870446-19.71007 19.454096-2.303774 0.767925-3.583649 3.839624-5.375474 5.631449 0.255975 0.51195 0.51195 1.279875 0.767925 1.791825 4.351574-0.255975 8.703148-0.51195 13.054722-1.0239 7.935223-0.767925 14.590572 1.791825 18.942146 8.447173 4.351574 6.655348 4.095599 13.566672 0 20.477995-0.767925 1.279875-1.279875 2.559749-2.0478 4.095599 7.167298 3.839624 13.822647 8.703148 13.822647 16.894346 0 9.215098 0.767925 17.406296 9.215098 22.78177 1.791825 1.279875 4.095599 3.839624 5.375474 3.583649 3.583649-1.0239 8.703148 0.255975 10.238998-5.631449 3.327674-12.286797 10.494973-17.150321 23.29372-17.918246 4.607549-0.255975 8.959123-2.303774 13.310697-3.327674 8.959123-2.0478 17.662271-3.839624 26.621394-5.375474 1.791825-0.255975 3.839624 1.0239 5.631449 1.0239 3.071699 0.255975 6.399374 0.255975 9.471073 0 2.303774-0.255975 4.607549-0.51195 6.911323-1.0239 2.0478-0.767925 4.863524-1.791825 6.143399-3.327674 9.983023-13.822647 25.853469-15.870446 38.652216-4.351574 4.351574 3.839624 8.447173 5.375474 14.334597 5.119499 16.126421-0.51195 24.317619 9.471073 21.75787 25.597494-0.255975 2.559749 0 7.167298 1.0239 7.423273 4.351574 1.53585 9.471073 2.815724 13.822647 1.791825 6.655348-1.53585 12.542772-4.863524 18.942146-7.167298 1.279875-0.51195 4.095599 0.255975 4.863524 1.279875 5.375474 8.447173 13.822647 8.191198 22.26982 8.703148 4.095599 0.255975 7.935223 1.0239 12.030822 1.53585 4.607549 0.51195 9.215098 1.791825 13.822647 1.53585 9.727048-0.767925 18.430196-8.191198 28.925168-5.887424 0.767925 0.255975 1.791825-1.0239 2.815724-1.53585 2.815724-1.279875 5.887424-2.303774 8.959123-3.583649 12.030822-5.375474 19.966045-6.911323 19.71007-21.75787-0.255975-12.798747 14.334597-19.966045 25.341519-13.310697 3.327674 2.0478 6.143399 5.375474 8.703148 8.191198 2.559749 3.071699 5.119499 3.327674 7.423273 0.51195 8.959123-10.750948 21.75787-10.750948 34.044667-12.542772 1.791825-0.255975 4.095599-2.0478 4.351574-3.583649 2.559749-13.054722 4.607549-15.358496 17.662271-18.174221 11.006922-2.303774 13.310697-5.375474 12.286797-16.382396-0.767925-7.423273 1.791825-13.310697 7.935223-17.662271 5.119499-3.327674 10.238998-6.655348 15.102522-10.494973 4.095599-3.071699 5.375474-9.215098 11.518872-10.238998 0.255975 0 0.51195-0.767925 0.51195-1.0239 2.0478-6.143399 3.071699-12.286797-0.255975-18.430196-6.911323-12.798747-1.279875-26.109444 13.054722-29.693093 4.863524-1.279875 7.935223-3.583649 7.423273-9.471073-0.255975-2.815724-0.255975-5.887424 0.767925-8.191198 3.071699-7.679248 6.399374-15.614471 10.494973-22.78177 3.327674-5.631449 4.863524-10.238998 4.095599-17.150321-1.279875-9.727048 0.255975-12.286797-13.566672-11.518872-1.53585 0-3.071699 0.255975-4.351574 0.255975-7.679248-0.255975-13.310697-4.351574-15.614471-11.774847-3.839624-11.518872 3.839624-23.80567 16.126421-26.877369 3.071699-0.767925 6.143399-2.303774 8.959123-3.583649-1.791825-2.815724-3.071699-3.583649-4.351574-4.095599-11.774847-5.631449-15.102522-12.286797-12.542772-25.085544 0.255975-1.791825 0-3.839624-0.255975-5.631449-1.791825-9.215098-3.327674-18.686171-10.750948-25.853469-1.279875-1.279875-1.53585-3.583649-1.791825-5.375474-1.791825-10.238998-7.167298-16.894346-17.918246-18.686171-2.559749-0.51195-5.375474-1.791825-7.679248-3.071699-6.911323-3.839624-11.774847-12.286797-9.983023-19.198121 2.303774-8.447173 5.631449-16.382396 8.703148-24.573594 2.815724-7.423273 5.631449-14.590572 8.703148-22.78177-3.071699-0.255975-4.351574-0.51195-5.375474-0.51195-16.894346 1.0239-24.573594-4.095599-30.205043-19.966045-0.51195-1.279875-2.303774-3.071699-3.327674-3.071699-16.638371 1.0239-24.317619-9.471073-30.461018-22.78177-7.167298-15.870446 3.839624-46.331464 27.389319-41.97989 4.863524 1.0239 7.679248-2.303774 9.983023-6.911323 3.071699-6.143399 7.679248-11.262897 12.030822-16.894346 3.327674-4.351574 7.423273-8.447173 10.750948-12.798747 1.791825-2.559749 2.815724-5.631449 4.351574-8.447173 11.518872-20.477995 36.604417-22.26982 50.427063-3.327674 3.583649 4.863524 6.143399 9.727048 5.631449 15.870446 0 1.279875 0.51195 2.559749 1.0239 4.351574 4.351574-2.303774 8.191198-4.863524 12.286797-6.399374 4.607549-1.791825 7.423273-4.863524 9.983023-9.215098 3.583649-6.143399 7.679248-12.286797 12.798747-17.406296 8.447173-8.447173 16.126421-17.150321 19.454096-29.437118 1.791825-7.167298 6.655348-15.102522 14.334597-15.870446 11.262897-1.0239 19.966045-5.631449 28.413218-11.518872 0.255975 0 0.51195 0 0.51195-0.255975 4.351574-4.863524 11.262897-8.959123 12.542772-14.334597 3.071699-13.566672 10.238998-20.477995 23.549695-22.013845 0.51195 0 1.0239-0.767925 2.559749-2.0478-2.303774-7.423273-3.839624-15.870446-7.679248-23.037745-7.679248-14.334597-8.959123-26.109444 3.583649-39.164166 6.911323-7.167298 12.030822-13.822647 23.037745-12.030822 1.279875 0.255975 4.095599-2.0478 4.607549-3.839624 4.863524-17.918246-1.791825-34.556617-5.631449-49.915113-5.887424 4.607549-11.262897 11.518872-18.430196 14.078622-8.447173 3.327674-18.174221 4.351574-27.389319 4.351574-13.310697 0-21.501895-7.935223-24.829569-20.73397-0.51195-2.303774-2.0478-5.119499-4.095599-5.887424-13.054722-5.375474-25.597494-11.518872-40.444041-7.935223-7.167298 1.791825-14.078622-0.767925-18.174221-6.655348-7.935223-11.006922-14.846547-22.78177-22.26982-34.044667-1.279875-2.0478-2.815724-4.095599-4.351574-6.143399-4.351574-5.375474-9.983023-9.983023-13.310697-15.870446-4.351574-7.935223-9.215098-14.846547-16.894346-19.454096-2.303774-1.279875-3.839624-3.839624-6.655348-7.167298-7.679248 2.815724-16.638371 1.279875-24.829569-3.327674-0.767925-0.51195-2.815724 0.51195-4.095599 1.0239-4.863524 1.53585-9.471073 3.583649-14.334597 5.119499-4.607549 1.279875-9.471073 2.0478-14.846547 3.327674 1.279875 3.583649 2.303774 6.143399 3.327674 8.959123 3.583649 9.983023 5.119499 20.73397-1.53585 29.437118-6.143399 7.679248-6.655348 16.894346-9.727048 25.341519-0.51195 1.53585 0 3.839624 0.51195 5.631449 3.839624 9.727048 1.791825 18.174221-5.375474 25.085544-5.887424 5.887424-12.542772 11.006922-18.942146 16.126421-6.655348 5.375474-13.822647 8.191198-22.525795 5.631449-1.53585-0.51195-4.607549 0.255975-4.863524 1.279875-2.0478 5.631449-3.327674 11.518872-5.119499 17.406296 0.51195 0.51195 1.0239 1.279875 1.53585 1.791825 5.887424-1.791825 12.030822-3.327674 17.662271-5.375474 11.518872-4.351574 22.78177-4.607549 33.020767 2.815724 7.423273 5.375474 14.590572 11.262897 21.24592 17.406296 3.839624 3.583649 7.167298 8.191198 9.471073 12.798747 7.167298 14.334597 0.767925 30.205043-13.566672 33.276742-5.631449 1.0239-11.774847-0.51195-17.662271-0.255975-3.071699 0-7.167298 0.51195-8.959123 2.303774-5.887424 6.399374-13.822647 8.447173-20.989945 12.542772-2.0478 1.279875-4.607549 2.815724-5.631449 4.863524-6.143399 14.334597-15.870446 23.80567-31.484918 27.389319-2.303774 0.51195-5.119499 2.815724-6.399374 4.863524-9.215098 16.894346-16.126421 20.22202-34.812592 16.126421-5.375474-1.279875-11.006922-2.303774-17.918246-3.839624 1.53585 2.559749 2.303774 3.583649 3.071699 4.607549 11.262897 14.590572 7.167298 29.949068-9.983023 36.348442-5.887424 2.0478-8.447173 5.887424-11.518872 10.750948-3.583649 5.631449-8.191198 11.774847-13.822647 15.102522-5.631449 3.327674-13.566672 2.815724-18.174221 8.959123-0.767925 1.0239-3.583649 0.767925-5.631449 0.767925-10.750948 0-21.24592 0-31.996868 0-10.238998-0.255975-19.454096 2.559749-27.901269 7.935223-9.471073 5.631449-19.198121 11.262897-28.669193 16.894346-3.327674 2.0478-6.399374 5.375474-10.750948 1.279875-0.51195-0.51195-3.071699 0.255975-4.607549 1.0239C683.709067 410.172092 680.893343 411.707941 677.053719 413.755741zM1013.660766 457.783431c8.959123 2.303774 13.822647 7.935223 16.382396 15.102522 5.119499-5.119499 9.727048-9.471073 14.590572-14.334597-5.887424-7.423273-5.887424-15.614471 0-24.573594 1.53585-2.303774 0.255975-6.143399 0.255975-9.215098-0.51195-0.255975-1.279875-0.51195-1.791825-1.0239-3.839624 3.839624-9.215098 7.167298-11.518872 11.774847C1027.483413 444.216759 1024.155738 453.175882 1013.660766 457.783431z" fill="#d81e06" p-id="6011"></path><path d="M757.173875 659.235709c0-59.898136 47.355364-107.76545 106.2296-107.76545 59.130211 0 106.485575 48.379264 106.2296 108.533375-0.255975 59.130211-47.611339 106.997525-106.2296 107.2535C804.529239 767.513109 756.9179 718.87787 757.173875 659.235709zM863.659451 567.59668c-49.403164-0.51195-90.871104 40.955991-91.127079 91.639029-0.255975 49.915113 40.700016 91.639029 89.847204 92.150979 49.147189 0.51195 90.359154-40.700016 91.127079-90.871104C954.27458 609.832546 913.830539 568.10863 863.659451 567.59668z" fill="#d81e06" p-id="6012"></path><path d="M804.785214 659.235709c0.255975-32.764792 26.365419-59.130211 58.362287-58.874236 31.996868 0.255975 57.850337 26.621394 57.850337 59.386186 0 32.508817-26.621394 59.386186-58.362287 58.874236C830.382708 718.109946 804.785214 691.744527 804.785214 659.235709z" fill="#d81e06" p-id="6013"></path></svg>