<?xml version="1.0" standalone="no"?><!DOCTYPE svg PUBLIC "-//W3C//DTD SVG 1.1//EN" "http://www.w3.org/Graphics/SVG/1.1/DTD/svg11.dtd"><svg t="1546847453458" class="icon" style="" viewBox="0 0 1024 1024" version="1.1" xmlns="http://www.w3.org/2000/svg" p-id="2681" xmlns:xlink="http://www.w3.org/1999/xlink" width="300" height="300"><defs><style type="text/css"></style></defs><path d="M736.3765258789064 542.8774185180664c41.439485549926765-57.011060714721694 73.26627731323244-105.40283203125 73.26627731323244-160.14899253845212 0-88.91819000244142-70.18795967102051-160.95159530639646-156.85515403747561-160.95159530639646s-156.853609085083 72.08284378051756-156.853609085083 160.95159530639646c0 49.15034294128418 27.279996871948235 96.08058929443358 62.939815521240234 146.78747177124023l-42.90796279907226 14.622201919555662-83.1624698638916-27.97908782958984c10.276250839233398-18.2991886138916 16.860065460205075-36.043739318847656 16.860065460205075-55.14553070068361 0-50.46200752258301-38.362712860107415-91.33758544921875-85.62744140625-91.33758544921875-47.3126220703125 0-85.62280654907225 40.87557792663574-85.62280654907225 91.33758544921875 0 21.072378158569336 8.664865493774414 41.485834121704094 21.21760368347168 62.606878280639634l-0.37928581237792974 0.04943847656249999-116.98302268981934 278.55259895324707 176.74564361572266-70.97588539123535 160.8334064483643 70.97588539123535 150.98356246948242-70.97588539123535 174.47147369384766 70.97588539123535-108.92764091491699-259.3457508087158zM652.8339977264404 304.5461101531982c42.05592155456543 0 76.1568832397461 34.98235702514648 76.1568832397461 78.182315826416s-34.148855209350586 78.23484420776369-76.1568832397461 78.23484420776369c-42.101497650146484 0-76.15302085876465-35.03565788269042-76.15302085876465-78.23484420776369 0.0015449523925781248-43.19918632507325 34.05306816101074-78.182315826416 76.15302085876465-78.182315826416l0 0zM364.0870304107666 416.653263092041c22.917823791503903 0 41.58084869384766 19.862680435180664 41.58084869384766 44.360990524291985 0 24.447326660156246-18.66302490234375 44.35790061950684-41.58084869384766 44.35790061950684-22.968807220458988 0-41.5847110748291-19.910573959350586-41.5847110748291-44.35790061950684-0.0015449523925781248-24.498310089111328 18.61358642578125-44.360990524291985 41.5847110748291-44.360990524291985l0 0zM667.800724029541 689.0608139038086l-148.04506301879883 68.25136184692381-157.8006649017334-68.25136184692381-117.69138336181643 57.06049919128418 67.44257926940918-185.19962310791013 10.988473892211914-2.2162342071533208c13.400917053222654 19.05158042907715 28.034706115722656 39.16686058044434 41.393136978149414 61.4945125579834 16.61982536315918-28.278808593749996 34.09787178039551-51.77058219909669 49.013614654541016-73.34352493286134l102.96257972717284 35.18551826477051 64.45309638977051-22.329969406127933c23.586788177490234 32.20916748046874 48.97035598754883 66.18344306945802 72.2721004486084 103.6377239227295 21.831722259521484-35.68994522094726 44.425106048583984-66.84082031250001 65.59481620788576-95.72602272033693l68.00416946411133 180.76483726501465-118.58668327331543-59.32771682739259z" fill="#d81e06" p-id="2682"></path></svg>