<?xml version="1.0" standalone="no"?><!DOCTYPE svg PUBLIC "-//W3C//DTD SVG 1.1//EN" "http://www.w3.org/Graphics/SVG/1.1/DTD/svg11.dtd"><svg t="1546841921592" class="icon" style="" viewBox="0 0 1024 1024" version="1.1" xmlns="http://www.w3.org/2000/svg" p-id="14832" xmlns:xlink="http://www.w3.org/1999/xlink" width="300" height="300"><defs><style type="text/css"></style></defs><path d="M727.808 336.21333367c12.970667 9.102222 16.128 27.022222 7.054222 40.106666L364.430222 904.24888867c-9.130667 12.8-28.871111 27.306667-43.946666 32.142222L146.204444 992.42666667c-15.075556 4.551111-27.904-4.266667-28.529777-20.195556L110.506667 789.33333367c-0.625778-15.644444 6.286222-39.253333 15.388444-52.053334L496.327111 209.35111067c9.130667-13.084444 27.136-16.213333 40.106667-7.111111l191.374222 133.973334M861.269333 144.49777767c12.970667 9.102222 16.128 27.306667 7.054223 40.106667l-52.764445 75.377778a28.728889 28.728889 0 0 1-40.078222 7.111111l-191.374222-133.973334a28.871111 28.871111 0 0 1-7.082667-40.106666l52.792889-75.377778a29.013333 29.013333 0 0 1 40.078222-7.111111l191.374222 133.973333M913.550222 970.80888867c0 15.644444-12.942222 28.728889-28.814222 28.728889l-370.944 1.422222c-15.815111 0-21.333333-10.524444-12.231111-23.324444l100.778667-143.36c9.130667-13.084444 29.468444-23.608889 45.340444-23.893333l237.084444-1.137778c15.843556-0.284444 28.785778 12.8 28.785778 28.444444v133.12M913.550222 718.22222267c0 15.928889-12.942222 29.013333-28.785778 29.013333l-207.189333 1.137778c-15.815111 0.284444-21.333333-10.24-12.202667-23.324445l100.778667-143.36c9.045333-12.8 29.468444-23.608889 45.255111-23.893333l73.358222-0.853333a28.330667 28.330667 0 0 1 28.785778 28.444444V718.22222267" p-id="14833" fill="#d81e06"></path></svg>