<?xml version="1.0" standalone="no"?><!DOCTYPE svg PUBLIC "-//W3C//DTD SVG 1.1//EN" "http://www.w3.org/Graphics/SVG/1.1/DTD/svg11.dtd"><svg t="1546841681333" class="icon" style="" viewBox="0 0 1024 1024" version="1.1" xmlns="http://www.w3.org/2000/svg" p-id="13402" xmlns:xlink="http://www.w3.org/1999/xlink" width="300" height="300"><defs><style type="text/css"></style></defs><path d="M704.73955555 111.95733333c128.79644445 0 233.69955555 96.82488889 233.69955556 216.86044445 0 37.31911111-10.69511111 73.728-30.26488889 106.60977777-29.35466667 48.01422222-76.45866667 83.51288889-133.23377777 100.46577778-15.13244445 4.43733333-26.624 6.25777778-37.31911112 6.25777778-24.91733333 0-44.48711111-19.56977778-44.48711111-44.48711111s19.56977778-44.48711111 44.48711111-44.48711111c1.82044445 0 5.34755555 0 9.78488889-1.82044444 38.22933333-10.69511111 68.38044445-32.88177778 85.33333333-62.23644445 11.60533333-18.65955555 16.83911111-39.13955555 16.83911112-60.416 0-70.20088889-64.85333333-128-143.92888889-128-27.53422222 0-54.15822222 7.05422222-78.16533333 20.48-41.75644445 24.00711111-66.67377778 63.94311111-66.67377778 107.52v372.28088889c0 75.54844445-41.75644445 144.83911111-111.04711112 183.97866666-37.31911111 21.27644445-79.07555555 31.97155555-121.74222222 31.97155556-128.79644445 0-233.69955555-96.82488889-233.69955555-216.86044444 0-37.31911111 10.69511111-73.728 30.26488889-106.60977778 29.35466667-48.01422222 76.45866667-83.51288889 133.34755555-100.46577778 16.04266667-4.43733333 26.624-6.25777778 37.31911111-6.25777778 24.91733333 0 44.48711111 19.56977778 44.48711112 44.37333334 0 24.91733333-19.56977778 44.37333333-44.48711112 44.37333333-1.82044445 0-5.34755555 0-9.78488888 1.82044445-38.22933333 11.60533333-68.38044445 33.792-85.33333334 62.23644444-11.60533333 18.65955555-16.83911111 39.13955555-16.83911111 60.416 0 70.20088889 64.85333333 128 144.83911111 128 27.53422222 0 54.15822222-7.05422222 78.16533334-20.48 41.75644445-24.00711111 66.67377778-63.94311111 66.67377777-107.52V328.81777778c0-75.54844445 41.75644445-144.83911111 111.04711111-183.97866667 36.29511111-22.18666667 78.05155555-32.88177778 120.71822222-32.88177778z" p-id="13403" fill="#d81e06"></path></svg>